# xmcd CD database file
#
# Track frame offsets:
#	150
#	27701
#	44299
#	66995
#	85989
#	104525
#	114597
#	140807
#	160387
#	189042
#	211428
#	230872
#	248704
#	261081
#	288868
#
# Disc length: 4194 seconds
#
# Revision: 4
# Processed by: cddbd v1.5.2PL0 Copyright (c) Steve Scherf et al.
# Submitted via: CDex 1.91
#
DISCID=e310600f
DTITLE=Various Artist - Simply Smooth Jazz CD1
DYEAR=2009
DGENRE=Jazz
TTITLE0=Bob James - Treasure island
TTITLE1=Kymaera - Ain't no sunshine
TTITLE2=Grant Green - Iron city
TTITLE3=Carol Welsman - The man I love
TTITLE4=Silhoutte - Yellow \\n
TTITLE5=Gustavo Marques - So danco samba
TTITLE6=Cal Tjader - Armando's bossa
TTITLE7=Milt Jackson - Blues mood
TTITLE8=Cannonball Adderley - Willow weep for me
TTITLE9=The Brecon Brothers - Cantaloupe island
TTITLE10=2Play - Morning dance\\n
TTITLE11=Art Pepper - Deep purple
TTITLE12=Paula Santoro - Triste
TTITLE13=Pat Martino - How insensitive
TTITLE14=Bob James - Angela (Theme from taxi)\\n\\n
EXTD=YEAR: 2009
EXTT0=
EXTT1=
EXTT2=
EXTT3=
EXTT4=
EXTT5=
EXTT6=
EXTT7=
EXTT8=
EXTT9=
EXTT10=
EXTT11=
EXTT12=
EXTT13=
EXTT14=
PLAYORDER=
